<svg enable-background="new 0 0 24 24" viewBox="0 0 24 24" xmlns="http://www.w3.org/2000/svg" ><symbol id="material_x5F_system_x5F_icon_x5F_border" viewBox="0 -48 48 48"><path d="m0-48h48v48h-48z" fill="none"></path></symbol><symbol id="material_x5F_system_x5F_icon_x5F_grid" viewBox="-.0002 -48 48.0002 48.0002"><g><g clip-path="url(#SVGID_2_)"><g><path d="m2-48v48" fill="none" stroke="#000" stroke-miterlimit="10" stroke-width=".25"></path><path d="m4-48v48" fill="none" stroke="#000" stroke-miterlimit="10" stroke-width=".25"></path><path d="m6-48v48" fill="none" stroke="#000" stroke-miterlimit="10" stroke-width=".25"></path><path d="m8-48v48" fill="none" stroke="#000" stroke-miterlimit="10" stroke-width=".25"></path><path d="m10-48v48" fill="none" stroke="#000" stroke-miterlimit="10" stroke-width=".25"></path><path d="m12-48v48" fill="none" stroke="#000" stroke-miterlimit="10" stroke-width=".25"></path><path d="m14-48v48" fill="none" stroke="#000" stroke-miterlimit="10" stroke-width=".25"></path><path d="m16-48v48" fill="none" stroke="#000" stroke-miterlimit="10" stroke-width=".25"></path><path d="m18-48v48" fill="none" stroke="#000" stroke-miterlimit="10" stroke-width=".25"></path><path d="m20-48v48" fill="none" stroke="#000" stroke-miterlimit="10" stroke-width=".25"></path><path d="m22-48v48" fill="none" stroke="#000" stroke-miterlimit="10" stroke-width=".25"></path><path d="m24-48v48" fill="none" stroke="#000" stroke-miterlimit="10" stroke-width=".25"></path><path d="m26-48v48" fill="none" stroke="#000" stroke-miterlimit="10" stroke-width=".25"></path><path d="m28-48v48" fill="none" stroke="#000" stroke-miterlimit="10" stroke-width=".25"></path><path d="m30-48v48" fill="none" stroke="#000" stroke-miterlimit="10" stroke-width=".25"></path><path d="m32-48v48" fill="none" stroke="#000" stroke-miterlimit="10" stroke-width=".25"></path><path d="m34-48v48" fill="none" stroke="#000" stroke-miterlimit="10" stroke-width=".25"></path><path d="m36-48v48" fill="none" stroke="#000" stroke-miterlimit="10" stroke-width=".25"></path><path d="m38-48v48" fill="none" stroke="#000" stroke-miterlimit="10" stroke-width=".25"></path><path d="m40-48v48" fill="none" stroke="#000" stroke-miterlimit="10" stroke-width=".25"></path><path d="m42-48v48" fill="none" stroke="#000" stroke-miterlimit="10" stroke-width=".25"></path><path d="m44-48v48" fill="none" stroke="#000" stroke-miterlimit="10" stroke-width=".25"></path><path d="m46-48v48" fill="none" stroke="#000" stroke-miterlimit="10" stroke-width=".25"></path></g><g><path d="m0-2h48" fill="none" stroke="#000" stroke-miterlimit="10" stroke-width=".25"></path><path d="m0-4h48" fill="none" stroke="#000" stroke-miterlimit="10" stroke-width=".25"></path><path d="m0-6h48" fill="none" stroke="#000" stroke-miterlimit="10" stroke-width=".25"></path><path d="m0-8h48" fill="none" stroke="#000" stroke-miterlimit="10" stroke-width=".25"></path><path d="m0-10h48" fill="none" stroke="#000" stroke-miterlimit="10" stroke-width=".25"></path><path d="m0-12h48" fill="none" stroke="#000" stroke-miterlimit="10" stroke-width=".25"></path><path d="m0-14h48" fill="none" stroke="#000" stroke-miterlimit="10" stroke-width=".25"></path><path d="m0-16h48" fill="none" stroke="#000" stroke-miterlimit="10" stroke-width=".25"></path><path d="m0-18h48" fill="none" stroke="#000" stroke-miterlimit="10" stroke-width=".25"></path><path d="m0-20h48" fill="none" stroke="#000" stroke-miterlimit="10" stroke-width=".25"></path><path d="m0-22h48" fill="none" stroke="#000" stroke-miterlimit="10" stroke-width=".25"></path><path d="m0-24h48" fill="none" stroke="#000" stroke-miterlimit="10" stroke-width=".25"></path><path d="m0-26h48" fill="none" stroke="#000" stroke-miterlimit="10" stroke-width=".25"></path><path d="m0-28h48" fill="none" stroke="#000" stroke-miterlimit="10" stroke-width=".25"></path><path d="m0-30h48" fill="none" stroke="#000" stroke-miterlimit="10" stroke-width=".25"></path><path d="m0-32h48" fill="none" stroke="#000" stroke-miterlimit="10" stroke-width=".25"></path><path d="m0-34h48" fill="none" stroke="#000" stroke-miterlimit="10" stroke-width=".25"></path><path d="m0-36h48" fill="none" stroke="#000" stroke-miterlimit="10" stroke-width=".25"></path><path d="m0-38h48" fill="none" stroke="#000" stroke-miterlimit="10" stroke-width=".25"></path><path d="m0-40h48" fill="none" stroke="#000" stroke-miterlimit="10" stroke-width=".25"></path><path d="m0-42h48" fill="none" stroke="#000" stroke-miterlimit="10" stroke-width=".25"></path><path d="m0-44h48" fill="none" stroke="#000" stroke-miterlimit="10" stroke-width=".25"></path><path d="m0-46h48" fill="none" stroke="#000" stroke-miterlimit="10" stroke-width=".25"></path></g><g><path d="m47.75-.25v-47.5h-47.5v47.5zm.25.25h-48v-48h48z"></path></g></g></g></symbol><clipPath id="SVGID_2_"><path id="SVGID_1_" d="m0-48h48v48h-48z"></path></clipPath><symbol id="material_x5F_system_x5F_icon_x5F_keylines" viewBox="-.0002 -48.0001 48.0002 48.0001"><g opacity=".4"><path clip-path="url(#SVGID_4_)" d="m24 0v-48" fill="none" stroke="#000" stroke-miterlimit="10" stroke-width=".25"></path><path clip-path="url(#SVGID_4_)" d="m48-24h-48" fill="none" stroke="#000" stroke-miterlimit="10" stroke-width=".25"></path><path clip-path="url(#SVGID_4_)" d="m48-16h-48" fill="none" stroke="#000" stroke-miterlimit="10" stroke-width=".25"></path><path clip-path="url(#SVGID_4_)" d="m48-32h-48" fill="none" stroke="#000" stroke-miterlimit="10" stroke-width=".25"></path><path clip-path="url(#SVGID_4_)" d="m32-48v48" fill="none" stroke="#000" stroke-miterlimit="10" stroke-width=".25"></path><path clip-path="url(#SVGID_4_)" d="m16-48v48" fill="none" stroke="#000" stroke-miterlimit="10" stroke-width=".25"></path><path clip-path="url(#SVGID_4_)" d="m47.75-.25-47.5-47.5" fill="none" stroke="#000" stroke-miterlimit="10" stroke-width=".25"></path><path clip-path="url(#SVGID_4_)" d="m.25-.25 47.5-47.5" fill="none" stroke="#000" stroke-miterlimit="10" stroke-width=".25"></path><path clip-path="url(#SVGID_4_)" d="m24.0005-13.9999c-5.5225 0-10.0001-4.477-10.0001-9.9999 0-5.5225 4.4775-10.0001 10.0001-10.0001 5.5224 0 9.9999 4.4775 9.9999 10.0001 0 5.523-4.4775 9.9999-9.9999 9.9999z" fill="none" stroke="#000" stroke-miterlimit="10" stroke-width=".25"></path><path clip-path="url(#SVGID_4_)" d="m23.9998-4.0001c-11.0536 0-20-8.9474-20-20 0-11.0527 8.9464-20 20-20 11.0527 0 20 8.9473 20 20 0 11.0526-8.9474 20-20 20z" fill="none" stroke="#000" stroke-miterlimit="10" stroke-width=".25"></path><path clip-path="url(#SVGID_4_)" d="m37.9998-6.0001h-28c-2.211 0-4-1.791-4-4v-28c0-2.209 1.789-4 4-4h28c2.2109 0 4 1.791 4 4v28c0 2.2089-1.7891 4-4 4z" fill="none" stroke="#000" stroke-miterlimit="10" stroke-width=".25"></path><path clip-path="url(#SVGID_4_)" d="m39.9998-8.0001h-32c-2.209 0-4-1.791-4-4v-24c0-2.209 1.791-4 4-4h32c2.209 0 4.0001 1.7913 4.0001 4.0003l-.0001 23.9997c0 2.2089-1.7911 4-4 4z" fill="none" stroke="#000" stroke-miterlimit="10" stroke-width=".25"></path><path clip-path="url(#SVGID_4_)" d="m39.9998-40.0001v32c0 2.209-1.791 4-4 4h-24c-2.209 0-4-1.791-4-4v-32c0-2.209 1.791-4 4-4h24c2.2089 0 4 1.791 4 4z" fill="none" stroke="#000" stroke-miterlimit="10" stroke-width=".25"></path><g clip-path="url(#SVGID_4_)"><path d="m47.75-.25v-47.5h-47.5v47.5zm.25.25h-48v-48h48z"></path></g></g></symbol><clipPath id="SVGID_4_"><path id="SVGID_3_" d="m0-48h48v48h-48z"></path></clipPath><g id="Backup" display="none"><g display="inline"><path d="m19 19c0 1.1046-.8954 2-2 2h-10c-1.1046 0-2-.8954-2-2 0-3.3137 2.6863-6 6-6h2c3.3137 0 6 2.6863 6 6z"></path></g><path d="m12 12c-2.2091 0-4-1.7909-4-4 0-2.2091 1.7909-4 4-4 2.2091 0 4 1.7909 4 4 0 2.2091-1.7909 4-4 4z" display="inline"></path></g><g id="Grid" display="none" transform="scale(.5 -.5)"><use id="XMLID_42_" display="inline" height="48" opacity=".15" width="48" xlink:href="#material_x5F_system_x5F_icon_x5F_grid" y="-48"></use><use id="XMLID_41_" display="inline" height="48" width="48" xlink:href="#material_x5F_system_x5F_icon_x5F_border" y="-48"></use></g><g id="Keyline" display="none"><use id="XMLID_8_" display="inline" height="48" transform="scale(.5 -.5)" width="48" xlink:href="#material_x5F_system_x5F_icon_x5F_keylines" y="-48"></use></g><g id="Outline" display="none"><g display="inline"><g><path d="m13.7883 14.3529c1.6088 0 2.9176 1.3088 2.9176 2.9176v.8471h-9.4118v-.8471c0-1.6088 1.3089-2.9176 2.9176-2.9176zm0-1.8823h-3.5765c-2.651 0-4.8 2.149-4.8 4.8v1.1294c0 .8837.7163 1.6 1.6 1.6h9.9765c.8837 0 1.6-.7163 1.6-1.6v-1.1294c0-2.651-2.1491-4.8-4.8-4.8z"></path></g><path d="m12 5.8824c1.0379 0 1.8824.8444 1.8824 1.8824s-.8445 1.8823-1.8824 1.8823-1.8824-.8444-1.8824-1.8824.8445-1.8823 1.8824-1.8823m0-1.8824c-2.0792 0-3.7647 1.6855-3.7647 3.7647s1.6855 3.7647 3.7647 3.7647 3.7647-1.6855 3.7647-3.7647-1.6855-3.7647-3.7647-3.7647z"></path></g></g><g id="Filled"><g><path d="m18.5883 18.1176c0 1.0396-.8428 1.8824-1.8824 1.8824h-9.4118c-1.0396 0-1.8824-.8428-1.8824-1.8824 0-3.1188 2.5283-5.647 5.6471-5.647h1.8824c3.1188 0 5.6471 2.5283 5.6471 5.647z"></path><path d="m12 11.5294c-2.0792 0-3.7647-1.6855-3.7647-3.7647 0-2.0792 1.6855-3.7647 3.7647-3.7647 2.0792 0 3.7647 1.6855 3.7647 3.7647 0 2.0792-1.6855 3.7647-3.7647 3.7647z"></path></g></g><g id="Two_Tone" display="none"><g display="inline"><g><path d="m18.5883 18.1176c0 1.0396-.8428 1.8824-1.8824 1.8824h-9.4118c-1.0396 0-1.8824-.8428-1.8824-1.8824 0-3.1188 2.5283-5.647 5.6471-5.647h1.8824c3.1188 0 5.6471 2.5283 5.6471 5.647z" fill="#00d6a2"></path></g><path d="m12 11.5294c-2.0792 0-3.7647-1.6855-3.7647-3.7647 0-2.0792 1.6855-3.7647 3.7647-3.7647 2.0792 0 3.7647 1.6855 3.7647 3.7647 0 2.0792-1.6855 3.7647-3.7647 3.7647z"></path></g></g></svg>