<svg version="1.0" xmlns="http://www.w3.org/2000/svg"
 width="27px" height="27px" viewBox="0 0 512.000000 512.000000"
 preserveAspectRatio="xMidYMid meet">

<g transform="translate(0.000000,512.000000) scale(0.100000,-0.100000)"
fill="#000000" stroke="none">
<path d="M3542 5109 c-241 -33 -468 -126 -664 -275 -53 -39 -471 -451 -1139
-1121 l-1057 -1058 -40 -85 c-51 -107 -66 -182 -60 -307 5 -112 35 -209 89
-296 19 -28 105 -125 193 -215 l160 -163 -480 -482 c-444 -446 -483 -487 -510
-547 -25 -57 -29 -77 -29 -161 0 -90 2 -99 37 -171 45 -91 103 -147 196 -191
61 -29 76 -32 162 -32 83 0 103 4 160 29 60 27 101 66 547 510 l483 480 157
-156 c248 -244 356 -297 584 -286 116 6 198 31 293 88 38 23 388 367 1124
1104 978 979 1075 1080 1135 1172 109 164 175 326 214 520 26 133 24 395 -5
531 -119 553 -520 961 -1072 1089 -121 28 -355 40 -478 23z m275 -169 c180
-16 302 -50 453 -125 326 -164 562 -465 645 -823 23 -97 33 -256 25 -368 -19
-235 -98 -443 -240 -633 -34 -45 -488 -505 -1106 -1122 -1146 -1143 -1079
-1083 -1227 -1110 -53 -10 -81 -10 -137 0 -151 27 -135 13 -797 675 -560 559
-604 606 -633 668 -43 92 -57 181 -41 266 27 147 -33 80 1110 1226 618 619
1077 1072 1122 1106 184 138 395 219 619 240 47 4 87 8 90 9 3 0 55 -4 117 -9z
m-2507 -3635 l155 -155 -470 -470 c-516 -516 -504 -506 -614 -498 -110 8 -191
88 -199 198 -8 110 -22 92 491 608 260 259 474 472 477 472 3 0 75 -70 160
-155z"/>
<path d="M3576 4759 c-160 -23 -354 -104 -476 -197 -36 -27 -131 -117 -212
-199 -125 -127 -148 -154 -148 -180 0 -62 60 -104 117 -82 15 6 95 77 178 158
158 156 214 200 320 250 111 53 197 72 340 78 89 3 137 10 153 20 56 35 47
123 -14 149 -37 16 -162 17 -258 3z"/>
<path d="M4097 4660 c-62 -49 -39 -127 44 -153 26 -8 79 20 89 48 16 43 12 65
-19 96 -35 35 -77 38 -114 9z"/>
<path d="M3495 4229 c-31 -17 -1874 -1861 -1891 -1891 -21 -40 -17 -66 15 -99
21 -20 39 -29 63 -29 30 0 104 72 985 953 881 881 953 955 953 985 0 24 -9 42
-29 63 -31 30 -62 36 -96 18z"/>
<path d="M3173 2677 c-846 -845 -943 -945 -943 -973 0 -63 69 -110 122 -84 32
17 1856 1839 1874 1872 21 40 17 66 -15 99 -21 20 -39 29 -63 29 -30 0 -104
-71 -975 -943z"/>
</g>
</svg>