<svg width="14" height="10" xmlns="http://www.w3.org/2000/svg">

 <g>
  <title>background</title>
  <rect fill="none" id="canvas_background" height="12" width="16" y="-1" x="-1"/>
 </g>
 <g>
  <title>Layer 1</title>
  <path id="svg_1" d="m12.749823,5.977933c0,-0.002 -0.00011,-0.004 -0.00014,-0.007c-0.0033,-0.15038 -0.12406,-0.2702 -0.27626,-0.2702l-0.07254,0l-1.12022,-2.16581c-0.04726,-0.0915 -0.14152,-0.1484 -0.24558,-0.14843l-1.91254,-0.0004l0.07297,-0.57836c0.02081,-0.23113 -0.05064,-0.44936 -0.20125,-0.61454c-0.15033,-0.16484 -0.36021,-0.25564 -0.59103,-0.25564l-5.93583,0c-0.14925,0 -0.27603,0.11548 -0.29026,0.26436l-0.0595,0.47651l3.38195,0c0.21959,0 0.39295,0.17802 0.38722,0.39762c-0.00577,0.2196 -0.18844,0.39761 -0.40804,0.39761l-1.12807,0c0.0002,0.00057 0.0004,0.001 0.0006,0.002l-3.31265,0c-0.15529,0 -0.28449,0.12587 -0.28855,0.28117c-0.00406,0.1553 0.11852,0.28117 0.27381,0.28117l4.38559,0c0.20358,0.0314 0.35566,0.20741 0.35007,0.42056c-0.00613,0.23409 -0.19992,0.42389 -0.4336,0.42585l-3.02352,0c-0.15686,0 -0.28734,0.12715 -0.29146,0.28401c-0.00412,0.15686 0.11971,0.28401 0.27657,0.28401l2.98791,0c0.20656,0.0288 0.36169,0.20625 0.35607,0.42148c-0.00616,0.23527 -0.20191,0.42601 -0.43718,0.42601l-3.42781,0l0,0.00031l-0.28802,0c-0.15686,0 -0.28733,0.12716 -0.29145,0.28402c-0.00412,0.15685 0.11968,0.28401 0.27657,0.28401l0.24856,0l-0.09721,1.01727c-0.02085,0.2311 0.05061,0.44933 0.20125,0.61451c0.1503,0.16487 0.36021,0.25564 0.59102,0.25564l0.21443,0c0.10219,0.58432 0.60773,1.02582 1.22611,1.02582c0.61837,0 1.14703,-0.4415 1.27975,-1.02579l2.67592,0c0.21636,0 0.42119,-0.0827 0.58183,-0.21818c0.14689,0.14098 0.34161,0.21818 0.55422,0.21818l0.04402,0c0.10216,0.58429 0.6077,1.02579 1.2261,1.02579c0.61838,0 1.14704,-0.4415 1.27976,-1.02579l0.17662,0c0.46013,0 0.8682,-0.37407 0.90966,-0.83386l0.17308,-1.91724c0.00023,-0.003 0.00011,-0.005 0.00028,-0.008c0.00029,-0.004 0.00083,-0.008 0.00094,-0.0118c0.00006,-0.002 -0.00017,-0.005 -0.00017,-0.007l0,0.00013zm-8.88713,3.23548c-0.39151,0 -0.7017,-0.31849 -0.69145,-0.71c0.01025,-0.39154 0.33712,-0.71006 0.72863,-0.71006c0.39151,0 0.70168,0.31852 0.69142,0.71006c-0.01025,0.39151 -0.33709,0.71 -0.7286,0.71zm6.36185,0c-0.39151,0 -0.70168,-0.31849 -0.69145,-0.71c0.01025,-0.39154 0.33712,-0.71006 0.72863,-0.71006c0.39151,0 0.7017,0.31852 0.69142,0.71006c-0.01025,0.39151 -0.33709,0.71 -0.7286,0.71zm1.78529,-1.32795c-0.01477,0.16379 -0.16538,0.30216 -0.32888,0.30216l-0.19106,0c-0.12649,-0.55249 -0.61755,-0.96229 -1.21332,-0.96229c-0.59577,0 -1.10827,0.4098 -1.26368,0.96229l-0.05848,0c-0.07219,0 -0.13661,-0.0271 -0.18145,-0.0763c-0.04513,-0.0495 -0.06637,-0.11681 -0.05981,-0.18961l0.3581,-3.96737l0.82247,0.00017l-0.13036,1.44425c-0.02087,0.2311 0.05055,0.44933 0.20117,0.61451c0.15029,0.1649 0.36026,0.25573 0.59111,0.25573l1.60006,0l-0.14587,1.61642l0,0.00004z"/>
 </g>
</svg>