<svg width="33" height="38" xmlns="http://www.w3.org/2000/svg">
 <g>
  <title>background</title>
  <rect x="-1" y="-1" width="35" height="40" id="canvas_background" fill="none"/>
 </g>

 <g>
  <title>Layer 1</title>
  <path d="m30.56183,12.25369c0,-0.00507 -0.00028,-0.01015 -0.00035,-0.01776c-0.0082,-0.38164 -0.30821,-0.68571 -0.68633,-0.68571l-0.18021,0l-2.78303,-5.49638c-0.11741,-0.23221 -0.35159,-0.37661 -0.61011,-0.37668l-4.75143,-0.00102l0.18128,-1.46775c0.0517,-0.58656 -0.1258,-1.14038 -0.49997,-1.55958c-0.37348,-0.41833 -0.89489,-0.64876 -1.46833,-0.64876l-14.74672,0c-0.37079,0 -0.68575,0.29307 -0.72111,0.67089l-0.14782,1.20929l8.40197,0c0.54554,0 0.97623,0.45177 0.96199,1.00907c-0.01433,0.5573 -0.46815,1.00905 -1.01371,1.00905l-2.80253,0c0.0005,0.00145 0.00099,0.00254 0.00149,0.00508l-8.2298,0c-0.3858,0 -0.70678,0.31943 -0.71686,0.71355c-0.01009,0.39412 0.29444,0.71355 0.68024,0.71355l10.89537,0c0.50576,0.07969 0.88358,0.52636 0.8697,1.06729c-0.01523,0.59408 -0.49668,1.07575 -1.07722,1.08072l-7.5115,0c-0.3897,0 -0.71386,0.32268 -0.72409,0.72076c-0.01024,0.39808 0.2974,0.72076 0.6871,0.72076l7.42303,0c0.51317,0.07309 0.89857,0.52342 0.8846,1.06963c-0.0153,0.59706 -0.50161,1.08112 -1.08611,1.08112l-8.5159,0l0,0.00079l-0.71554,0c-0.3897,0 -0.71383,0.3227 -0.72407,0.72078c-0.01023,0.39805 0.29733,0.72076 0.6871,0.72076l0.61751,0l-0.2415,2.58162c-0.0518,0.58648 0.12573,1.1403 0.49997,1.5595c0.3734,0.4184 0.89489,0.64876 1.46831,0.64876l0.53272,0c0.25387,1.48288 1.50982,2.60331 3.04609,2.60331c1.53625,0 2.84963,-1.12043 3.17936,-2.60324l6.64794,0c0.53751,0 1.04638,-0.20987 1.44547,-0.55369c0.36493,0.35778 0.84868,0.55369 1.37688,0.55369l0.10936,0c0.2538,1.48281 1.50974,2.60324 3.04607,2.60324c1.53627,0 2.84965,-1.12043 3.17938,-2.60324l0.43879,0c1.14312,0 2.15691,-0.94931 2.25991,-2.11616l0.43,-4.86556c0.00057,-0.00761 0.00027,-0.01268 0.00069,-0.0203c0.00072,-0.01015 0.00206,-0.0203 0.00234,-0.02994c0.00015,-0.00508 -0.00042,-0.01269 -0.00042,-0.01777l0,0.00033zm-22.0788,8.21098c-0.97265,0 -1.74327,-0.80827 -1.71781,-1.80184c0.02547,-0.99364 0.83753,-1.80198 1.81018,-1.80198c0.97265,0 1.74322,0.80834 1.71773,1.80198c-0.02546,0.99357 -0.83745,1.80184 -1.8101,1.80184zm15.8051,0c-0.97265,0 -1.74322,-0.80827 -1.71781,-1.80184c0.02547,-0.99364 0.83753,-1.80198 1.81018,-1.80198c0.97265,0 1.74327,0.80834 1.71773,1.80198c-0.02546,0.99357 -0.83745,1.80184 -1.8101,1.80184zm4.4353,-3.37006c-0.0367,0.41566 -0.41087,0.76682 -0.81706,0.76682l-0.47466,0c-0.31425,-1.40211 -1.53421,-2.4421 -3.01432,-2.4421c-1.4801,0 -2.75334,1.03999 -3.13943,2.4421l-0.14528,0c-0.17935,0 -0.33939,-0.06878 -0.45079,-0.19364c-0.11212,-0.12562 -0.16489,-0.29644 -0.14859,-0.48119l0.88965,-10.06836l2.04331,0.00044l-0.32386,3.6652c-0.05185,0.58648 0.12558,1.14031 0.49977,1.5595c0.37338,0.41848 0.89502,0.64899 1.46853,0.64899l3.97512,0l-0.36239,4.10213l0,0.00011z" id="svg_1" stroke="null"/>
 </g>
</svg>