<?xml version="1.0" encoding="UTF-8"?>
<!DOCTYPE svg PUBLIC "-//W3C//DTD SVG 1.1//EN" "http://www.w3.org/Graphics/SVG/1.1/DTD/svg11.dtd">
<svg xmlns="http://www.w3.org/2000/svg" version="1.1" width="579px" height="696px" style="shape-rendering:geometricPrecision; text-rendering:geometricPrecision; image-rendering:optimizeQuality; fill-rule:evenodd; clip-rule:evenodd" xmlns:xlink="http://www.w3.org/1999/xlink">
<g><path style="opacity:0.973" fill="#2a2a29" d="M 265.5,-0.5 C 266.5,-0.5 267.5,-0.5 268.5,-0.5C 270.68,1.03127 271.68,3.19793 271.5,6C 268.476,15.7847 266.476,25.7847 265.5,36C 265.801,47.5101 268.635,58.3435 274,68.5C 274.718,69.4506 275.551,69.6172 276.5,69C 284.691,58.0456 295.524,54.2122 309,57.5C 332.842,67.8499 341.842,85.8499 336,111.5C 333.035,121.918 327.202,130.418 318.5,137C 299.5,137.667 280.5,137.667 261.5,137C 247.446,124.952 243.279,110.119 249,92.5C 253.326,85.8404 259.159,81.007 266.5,78C 258.312,65.2561 254.312,51.2561 254.5,36C 254.372,24.6817 256.539,13.8484 261,3.5C 262.397,1.92975 263.897,0.596413 265.5,-0.5 Z"/></g>
<g><path style="opacity:0.992" fill="#2a2a29" d="M 187.5,186.5 C 194.73,201.645 206.73,210.812 223.5,214C 239.597,217.491 254.93,215.491 269.5,208C 276.486,203.348 281.653,197.181 285,189.5C 290.624,201.407 299.79,209.24 312.5,213C 331.803,218.114 350.137,215.781 367.5,206C 374.888,201.277 380.055,194.777 383,186.5C 390.437,203.66 403.603,213.16 422.5,215C 439.944,217.304 455.944,213.638 470.5,204C 474.092,201.079 476.925,197.579 479,193.5C 479.667,238.833 479.667,284.167 479,329.5C 475.337,344.495 466.171,354.328 451.5,359C 340.832,379.657 230.165,379.657 119.5,359C 102.261,353.424 92.7614,341.59 91,323.5C 90.1667,280.163 90.3334,236.829 91.5,193.5C 100.666,206.59 113.333,213.757 129.5,215C 150.078,217.918 167.578,212.085 182,197.5C 184.312,194.057 186.146,190.391 187.5,186.5 Z"/></g>
<g><path style="opacity:0.985" fill="#2a2a29" d="M -0.5,522.5 C -0.5,515.5 -0.5,508.5 -0.5,501.5C 3.86359,488.635 12.5303,479.801 25.5,475C 30.3745,473.198 35.3745,471.865 40.5,471C 67.8999,470.719 95.2332,472.052 122.5,475C 141.822,475.982 161.155,476.649 180.5,477C 185.095,490.505 184.262,503.672 178,516.5C 172.36,524.744 164.526,529.577 154.5,531C 142.8,531.769 131.133,531.603 119.5,530.5C 120.035,566.506 120.869,602.506 122,638.5C 122.792,646.338 125.125,653.671 129,660.5C 132.06,663.614 135.56,666.114 139.5,668C 140.059,668.725 140.392,669.558 140.5,670.5C 139.401,674.533 137.401,678.033 134.5,681C 114.624,696.953 93.624,698.62 71.5,686C 63.9628,679.425 59.1295,671.258 57,661.5C 55.927,652.376 55.427,643.209 55.5,634C 56.2414,598.167 56.908,562.333 57.5,526.5C 39.8572,525.998 22.3572,527.331 5,530.5C 3.8926,530.415 2.8926,530.081 2,529.5C 1.30239,526.996 0.46906,524.663 -0.5,522.5 Z"/></g>
<g><path style="opacity:0.982" fill="#2a2a29" d="M 290.5,695.5 C 284.167,695.5 277.833,695.5 271.5,695.5C 254.745,694.063 238.412,690.23 222.5,684C 202.353,674.538 192.853,658.705 194,636.5C 200.004,617.073 213.171,608.573 233.5,611C 241.516,612.043 249.016,614.543 256,618.5C 255.669,626.484 255.669,634.484 256,642.5C 260.182,655.166 269.016,662.166 282.5,663.5C 301.112,661.084 309.279,650.751 307,632.5C 303.5,625 298,619.5 290.5,616C 272.833,608.333 255.167,600.667 237.5,593C 224.216,587.62 213.049,579.453 204,568.5C 189.017,539.588 193.851,514.421 218.5,493C 243.52,474.745 271.52,467.745 302.5,472C 324.166,473.255 342.666,481.422 358,496.5C 366.426,508.683 368.76,522.016 365,536.5C 359.43,551.382 348.597,558.382 332.5,557.5C 323.921,557.613 315.921,555.613 308.5,551.5C 308.167,549 307.833,546.5 307.5,544C 308.282,537.172 308.449,530.339 308,523.5C 304.576,511.861 296.743,506.195 284.5,506.5C 268.764,508.07 261.597,516.737 263,532.5C 266.625,543.125 273.458,550.959 283.5,556C 299.373,563.513 315.706,569.847 332.5,575C 346.26,580.436 358.094,588.602 368,599.5C 382.733,622.846 381.733,645.512 365,667.5C 354.058,677.891 341.225,685.058 326.5,689C 314.53,692.16 302.53,694.326 290.5,695.5 Z"/></g>
<g><path style="opacity:0.981" fill="#2a2a29" d="M 578.5,574.5 C 578.5,580.833 578.5,587.167 578.5,593.5C 576.345,627.309 562.345,655.143 536.5,677C 520.957,687.456 503.957,693.623 485.5,695.5C 473.833,695.5 462.167,695.5 450.5,695.5C 432.029,694.097 413.696,691.097 395.5,686.5C 395.169,617.929 395.502,549.429 396.5,481C 409.242,477.265 422.242,474.932 435.5,474C 451.482,472.667 467.482,472.334 483.5,473C 526.995,478.333 556.495,501.499 572,542.5C 575.152,553.111 577.319,563.778 578.5,574.5 Z M 461.5,505.5 C 477.489,504.577 489.656,510.911 498,524.5C 517.591,564.385 517.258,604.052 497,643.5C 488.651,656.259 476.817,662.592 461.5,662.5C 461.5,610.167 461.5,557.833 461.5,505.5 Z"/></g>
</svg>
